<svg xmlns="http://www.w3.org/2000/svg" width="720" height="480" viewBox="0 0 720 480">
<rect width="100%" height="100%" fill="#f6f4ef"/>
<text x="360.0" y="36" text-anchor="middle" font-size="24" fill="#1d2a33" font-family="Helvetica, Arial, sans-serif">ROS 2 Intra-process 320x240 Latency</text>
<text x="24" y="240.0" transform="rotate(-90 24 240.0)" text-anchor="middle" font-size="16" fill="#3c4c57" font-family="Helvetica, Arial, sans-serif">Latency (ms)</text>
<line x1="110" y1="400" x2="640" y2="400" stroke="#5d6b75" stroke-width="2"/>
<line x1="110" y1="70" x2="110" y2="400" stroke="#5d6b75" stroke-width="2"/>
<line x1="102" y1="400.00" x2="640" y2="400.00" stroke="#d8d3c7" stroke-width="1"/>
<text x="96" y="405.00" text-anchor="end" font-size="13" fill="#56646f" font-family="Helvetica, Arial, sans-serif">0.012</text>
<line x1="102" y1="317.50" x2="640" y2="317.50" stroke="#d8d3c7" stroke-width="1"/>
<text x="96" y="322.50" text-anchor="end" font-size="13" fill="#56646f" font-family="Helvetica, Arial, sans-serif">0.028</text>
<line x1="102" y1="235.00" x2="640" y2="235.00" stroke="#d8d3c7" stroke-width="1"/>
<text x="96" y="240.00" text-anchor="end" font-size="13" fill="#56646f" font-family="Helvetica, Arial, sans-serif">0.043</text>
<line x1="102" y1="152.50" x2="640" y2="152.50" stroke="#d8d3c7" stroke-width="1"/>
<text x="96" y="157.50" text-anchor="end" font-size="13" fill="#56646f" font-family="Helvetica, Arial, sans-serif">0.059</text>
<line x1="102" y1="70.00" x2="640" y2="70.00" stroke="#d8d3c7" stroke-width="1"/>
<text x="96" y="75.00" text-anchor="end" font-size="13" fill="#56646f" font-family="Helvetica, Arial, sans-serif">0.075</text>
<line x1="375.00" y1="253.86" x2="375.00" y2="318.44" stroke="#8b1e3f" stroke-width="3"/>
<line x1="375.00" y1="361.70" x2="375.00" y2="400.00" stroke="#8b1e3f" stroke-width="3"/>
<line x1="351.00" y1="253.86" x2="399.00" y2="253.86" stroke="#8b1e3f" stroke-width="3"/>
<line x1="351.00" y1="400.00" x2="399.00" y2="400.00" stroke="#8b1e3f" stroke-width="3"/>
<rect x="305.00" y="318.44" width="140.00" height="43.26" fill="#d2b48c" stroke="#8b1e3f" stroke-width="3"/>
<line x1="305.00" y1="351.46" x2="445.00" y2="351.46" stroke="#8b1e3f" stroke-width="4"/>
<circle cx="375.00" cy="333.05" r="6" fill="#1d2a33"/>
<text x="375.00" y="436" text-anchor="middle" font-size="15" fill="#3c4c57" font-family="Helvetica, Arial, sans-serif">n=959</text>
<text x="630" y="405.00" text-anchor="start" font-size="13" fill="#1d2a33" font-family="Helvetica, Arial, sans-serif">min: 0.012</text>
<text x="630" y="366.70" text-anchor="start" font-size="13" fill="#1d2a33" font-family="Helvetica, Arial, sans-serif">q1: 0.019</text>
<text x="630" y="356.46" text-anchor="start" font-size="13" fill="#1d2a33" font-family="Helvetica, Arial, sans-serif">median: 0.021</text>
<text x="630" y="323.44" text-anchor="start" font-size="13" fill="#1d2a33" font-family="Helvetica, Arial, sans-serif">q3: 0.028</text>
<text x="630" y="258.86" text-anchor="start" font-size="13" fill="#1d2a33" font-family="Helvetica, Arial, sans-serif">max: 0.075</text>
<text x="630" y="338.05" text-anchor="start" font-size="13" fill="#1d2a33" font-family="Helvetica, Arial, sans-serif">mean: 0.025</text>
</svg>