<svg xmlns="http://www.w3.org/2000/svg" width="720" height="480" viewBox="0 0 720 480">
<rect width="100%" height="100%" fill="#f6f4ef"/>
<text x="360.0" y="36" text-anchor="middle" font-size="24" fill="#1d2a33" font-family="Helvetica, Arial, sans-serif">ROS 2 Multi-process 1440x1080 Latency</text>
<text x="24" y="240.0" transform="rotate(-90 24 240.0)" text-anchor="middle" font-size="16" fill="#3c4c57" font-family="Helvetica, Arial, sans-serif">Latency (ms)</text>
<line x1="110" y1="400" x2="640" y2="400" stroke="#5d6b75" stroke-width="2"/>
<line x1="110" y1="70" x2="110" y2="400" stroke="#5d6b75" stroke-width="2"/>
<line x1="102" y1="400.00" x2="640" y2="400.00" stroke="#d8d3c7" stroke-width="1"/>
<text x="96" y="405.00" text-anchor="end" font-size="13" fill="#56646f" font-family="Helvetica, Arial, sans-serif">2.751</text>
<line x1="102" y1="317.50" x2="640" y2="317.50" stroke="#d8d3c7" stroke-width="1"/>
<text x="96" y="322.50" text-anchor="end" font-size="13" fill="#56646f" font-family="Helvetica, Arial, sans-serif">3.225</text>
<line x1="102" y1="235.00" x2="640" y2="235.00" stroke="#d8d3c7" stroke-width="1"/>
<text x="96" y="240.00" text-anchor="end" font-size="13" fill="#56646f" font-family="Helvetica, Arial, sans-serif">3.700</text>
<line x1="102" y1="152.50" x2="640" y2="152.50" stroke="#d8d3c7" stroke-width="1"/>
<text x="96" y="157.50" text-anchor="end" font-size="13" fill="#56646f" font-family="Helvetica, Arial, sans-serif">4.174</text>
<line x1="102" y1="70.00" x2="640" y2="70.00" stroke="#d8d3c7" stroke-width="1"/>
<text x="96" y="75.00" text-anchor="end" font-size="13" fill="#56646f" font-family="Helvetica, Arial, sans-serif">4.648</text>
<line x1="375.00" y1="198.60" x2="375.00" y2="294.57" stroke="#8b1e3f" stroke-width="3"/>
<line x1="375.00" y1="379.74" x2="375.00" y2="400.00" stroke="#8b1e3f" stroke-width="3"/>
<line x1="351.00" y1="198.60" x2="399.00" y2="198.60" stroke="#8b1e3f" stroke-width="3"/>
<line x1="351.00" y1="400.00" x2="399.00" y2="400.00" stroke="#8b1e3f" stroke-width="3"/>
<rect x="305.00" y="294.57" width="140.00" height="85.17" fill="#d2b48c" stroke="#8b1e3f" stroke-width="3"/>
<line x1="305.00" y1="361.61" x2="445.00" y2="361.61" stroke="#8b1e3f" stroke-width="4"/>
<circle cx="375.00" cy="338.26" r="6" fill="#1d2a33"/>
<text x="375.00" y="436" text-anchor="middle" font-size="15" fill="#3c4c57" font-family="Helvetica, Arial, sans-serif">n=953</text>
<text x="630" y="405.00" text-anchor="start" font-size="13" fill="#1d2a33" font-family="Helvetica, Arial, sans-serif">min: 2.751</text>
<text x="630" y="384.74" text-anchor="start" font-size="13" fill="#1d2a33" font-family="Helvetica, Arial, sans-serif">q1: 2.868</text>
<text x="630" y="366.61" text-anchor="start" font-size="13" fill="#1d2a33" font-family="Helvetica, Arial, sans-serif">median: 2.972</text>
<text x="630" y="299.57" text-anchor="start" font-size="13" fill="#1d2a33" font-family="Helvetica, Arial, sans-serif">q3: 3.357</text>
<text x="630" y="203.60" text-anchor="start" font-size="13" fill="#1d2a33" font-family="Helvetica, Arial, sans-serif">max: 4.648</text>
<text x="630" y="343.26" text-anchor="start" font-size="13" fill="#1d2a33" font-family="Helvetica, Arial, sans-serif">mean: 3.106</text>
</svg>