<svg xmlns="http://www.w3.org/2000/svg" width="720" height="480" viewBox="0 0 720 480">
<rect width="100%" height="100%" fill="#f6f4ef"/>
<text x="360.0" y="36" text-anchor="middle" font-size="24" fill="#1d2a33" font-family="Helvetica, Arial, sans-serif">LibXR LinuxSharedTopic 320x240</text>
<text x="24" y="240.0" transform="rotate(-90 24 240.0)" text-anchor="middle" font-size="16" fill="#3c4c57" font-family="Helvetica, Arial, sans-serif">Latency (us)</text>
<line x1="110" y1="400" x2="640" y2="400" stroke="#5d6b75" stroke-width="2"/>
<line x1="110" y1="70" x2="110" y2="400" stroke="#5d6b75" stroke-width="2"/>
<line x1="102" y1="400.00" x2="640" y2="400.00" stroke="#d8d3c7" stroke-width="1"/>
<text x="96" y="405.00" text-anchor="end" font-size="13" fill="#56646f" font-family="Helvetica, Arial, sans-serif">15.190</text>
<line x1="102" y1="317.50" x2="640" y2="317.50" stroke="#d8d3c7" stroke-width="1"/>
<text x="96" y="322.50" text-anchor="end" font-size="13" fill="#56646f" font-family="Helvetica, Arial, sans-serif">29.193</text>
<line x1="102" y1="235.00" x2="640" y2="235.00" stroke="#d8d3c7" stroke-width="1"/>
<text x="96" y="240.00" text-anchor="end" font-size="13" fill="#56646f" font-family="Helvetica, Arial, sans-serif">43.195</text>
<line x1="102" y1="152.50" x2="640" y2="152.50" stroke="#d8d3c7" stroke-width="1"/>
<text x="96" y="157.50" text-anchor="end" font-size="13" fill="#56646f" font-family="Helvetica, Arial, sans-serif">57.198</text>
<line x1="102" y1="70.00" x2="640" y2="70.00" stroke="#d8d3c7" stroke-width="1"/>
<text x="96" y="75.00" text-anchor="end" font-size="13" fill="#56646f" font-family="Helvetica, Arial, sans-serif">71.200</text>
<line x1="375.00" y1="94.68" x2="375.00" y2="207.47" stroke="#8b1e3f" stroke-width="3"/>
<line x1="375.00" y1="284.49" x2="375.00" y2="400.00" stroke="#8b1e3f" stroke-width="3"/>
<line x1="351.00" y1="94.68" x2="399.00" y2="94.68" stroke="#8b1e3f" stroke-width="3"/>
<line x1="351.00" y1="400.00" x2="399.00" y2="400.00" stroke="#8b1e3f" stroke-width="3"/>
<rect x="305.00" y="207.47" width="140.00" height="77.02" fill="#d2b48c" stroke="#8b1e3f" stroke-width="3"/>
<line x1="305.00" y1="221.88" x2="445.00" y2="221.88" stroke="#8b1e3f" stroke-width="4"/>
<circle cx="375.00" cy="238.91" r="6" fill="#1d2a33"/>
<text x="375.00" y="436" text-anchor="middle" font-size="15" fill="#3c4c57" font-family="Helvetica, Arial, sans-serif">n=300</text>
<text x="630" y="405.00" text-anchor="start" font-size="13" fill="#1d2a33" font-family="Helvetica, Arial, sans-serif">min: 15.190</text>
<text x="630" y="289.49" text-anchor="start" font-size="13" fill="#1d2a33" font-family="Helvetica, Arial, sans-serif">q1: 34.796</text>
<text x="630" y="226.88" text-anchor="start" font-size="13" fill="#1d2a33" font-family="Helvetica, Arial, sans-serif">median: 45.422</text>
<text x="630" y="212.47" text-anchor="start" font-size="13" fill="#1d2a33" font-family="Helvetica, Arial, sans-serif">q3: 47.868</text>
<text x="630" y="99.68" text-anchor="start" font-size="13" fill="#1d2a33" font-family="Helvetica, Arial, sans-serif">max: 71.200</text>
<text x="630" y="243.91" text-anchor="start" font-size="13" fill="#1d2a33" font-family="Helvetica, Arial, sans-serif">mean: 42.532</text>
</svg>